<svg width="169" height="91" viewBox="0 0 169 91" fill="none" xmlns="http://www.w3.org/2000/svg">
<path d="M142.192 89.0937C156.551 89.0115 168.121 76.7313 168.034 61.6651C167.948 46.5989 156.238 34.452 141.879 34.5342C127.521 34.6165 115.951 46.8967 116.037 61.9629C116.123 77.029 127.833 89.176 142.192 89.0937Z" fill="white" stroke="black" stroke-width="0.490983"/>
<path d="M142.065 66.9254C144.727 66.9102 146.872 64.6092 146.856 61.7861C146.839 58.9629 144.668 56.6866 142.006 56.7019C139.344 56.7171 137.2 59.0181 137.216 61.8413C137.232 64.6644 139.403 66.9407 142.065 66.9254Z" fill="white"/>
<path d="M62.3056 31.6026L23.6855 62.0361L25.6946 65.9006L64.3147 35.4671L62.3056 31.6026Z" fill="white"/>
<path d="M68.3282 59.318L27.6836 60.5469L27.2638 64.2697L67.9083 63.0409L68.3282 59.318Z" fill="white"/>
<path d="M145.14 62.5018L118.295 14.543L114.089 16.2661L140.934 64.225L145.14 62.5018Z" fill="white"/>
<path d="M124.866 30.7299L74.7988 56.9688L76.3497 60.4985L126.417 34.2597L124.866 30.7299Z" fill="white"/>
<path d="M63.9541 30.9741L125.06 29.6784L124.155 33.7183L63.049 35.014L63.9541 30.9741Z" fill="white"/>
<path d="M54.4471 18.5724L74.6211 59.2153L78.3172 58.0355L58.1432 17.3926L54.4471 18.5724Z" fill="white"/>
<path d="M72.7623 67.0828C76.116 67.0636 78.8182 64.1647 78.7979 60.6079C78.7775 57.0511 76.0423 54.1833 72.6886 54.2025C69.3349 54.2217 66.6327 57.1206 66.6531 60.6774C66.6735 64.2342 69.4087 67.102 72.7623 67.0828Z" fill="white"/>
<path d="M93.9364 57.9455L84.8506 57.9976L84.8848 63.9747L93.9706 63.9227L93.9364 57.9455Z" fill="white"/>
<path d="M85.5748 59.3678L78.5107 59.4082L78.529 62.5915L85.593 62.551L85.5748 59.3678Z" fill="white"/>
<path d="M45.0831 26.0614L47.1665 12.0667C47.1776 11.9923 47.2033 11.9213 47.242 11.8583C47.2806 11.7952 47.3314 11.7415 47.3909 11.7006C47.4505 11.6597 47.5175 11.6326 47.5876 11.621C47.6577 11.6094 47.7293 11.6136 47.7978 11.6333L75.569 19.6256C75.5983 19.6339 75.624 19.6524 75.6421 19.6782C75.6603 19.704 75.6697 19.7355 75.6689 19.7676C75.6681 19.7997 75.6571 19.8306 75.6377 19.8553C75.6184 19.8799 75.5917 19.897 75.5621 19.9036L45.5472 26.5295C45.4856 26.5431 45.4218 26.5406 45.3613 26.5223C45.3008 26.504 45.2454 26.4703 45.1998 26.4243C45.1542 26.3783 45.1199 26.3212 45.0997 26.258C45.0795 26.1948 45.0733 26.1273 45.0831 26.0614Z" fill="white"/>
<path d="M26.5122 90.4087C40.8708 90.3265 52.4409 78.0462 52.3546 62.98C52.2683 47.9139 40.5584 35.767 26.1998 35.8492C11.8411 35.9314 0.27111 48.2116 0.357383 63.2778C0.443656 78.344 12.1536 90.4909 26.5122 90.4087Z" fill="white" stroke="black" stroke-width="0.490983"/>
<path d="M26.3843 68.2408C29.0462 68.2256 31.191 65.9246 31.1748 63.1015C31.1587 60.2783 28.9876 58.0021 26.3257 58.0173C23.6638 58.0326 21.519 60.3335 21.5351 63.1567C21.5513 65.9798 23.7223 68.2561 26.3843 68.2408Z" fill="white"/>
<path d="M138.377 12.0883L101.777 12.2979L101.801 16.3532L138.4 16.1436L138.377 12.0883Z" fill="white" stroke="black" stroke-width="0.238362"/>
<path d="M139.758 25.0276L143.345 23.2979L133.428 0.195763L129.841 1.92547L139.758 25.0276Z" fill="white" stroke="black" stroke-width="0.245669"/>
</svg>
